<?xml version="1.0" standalone="no"?>
<!DOCTYPE svg PUBLIC "-//W3C//DTD SVG 20010904//EN"
 "http://www.w3.org/TR/2001/REC-SVG-20010904/DTD/svg10.dtd">
<svg version="1.0" xmlns="http://www.w3.org/2000/svg"
 width="1080.000000pt" height="1080.000000pt" viewBox="0 0 1080.000000 1080.000000"
 preserveAspectRatio="xMidYMid meet">

<g transform="translate(0.000000,1080.000000) scale(0.100000,-0.100000)"
fill="#000000" stroke="none">
<path d="M6510 7844 c-731 -392 -1060 -590 -1395 -841 -194 -145 -225 -193
-204 -309 21 -113 134 -374 173 -399 35 -23 60 -16 178 51 152 86 497 252 567
274 77 24 187 26 261 4 l54 -16 -30 -27 c-17 -14 -86 -74 -155 -132 -68 -58
-194 -174 -280 -257 -185 -179 -780 -804 -828 -871 -53 -72 -118 -219 -135
-303 -20 -96 -20 -276 -1 -383 8 -44 15 -98 15 -120 0 -59 22 -85 72 -85 75 0
74 -1 274 290 199 288 347 477 615 785 34 39 146 184 250 323 360 480 522 610
830 671 125 24 152 35 281 108 127 71 139 93 115 205 -31 152 -129 307 -237
377 l-59 38 -85 -33 c-165 -67 -324 -94 -462 -79 l-69 7 35 30 c121 102 318
211 528 293 148 57 197 91 235 165 26 50 28 63 25 135 -4 69 -9 90 -43 153
-55 106 -83 132 -137 132 -36 -1 -96 -29 -388 -186z"/>
<path d="M5840 6591 c-68 -21 -392 -178 -551 -267 -65 -36 -134 -68 -153 -71
-53 -8 -92 20 -127 94 l-30 63 -47 -6 c-83 -10 -126 -25 -180 -60 -85 -56
-151 -161 -152 -241 l0 -43 43 0 c24 0 67 -7 95 -15 l52 -16 -118 -98 c-166
-140 -306 -275 -621 -602 -167 -173 -289 -308 -310 -343 -81 -137 -106 -285
-82 -489 18 -143 19 -147 47 -157 49 -19 85 11 180 148 121 176 266 371 365
488 207 248 612 664 770 791 148 120 358 250 449 278 14 4 104 85 200 179 97
94 229 216 293 271 114 97 117 100 90 106 -55 13 -158 8 -213 -10z"/>
<path d="M6693 6450 c-210 -55 -405 -213 -624 -505 -67 -89 -67 -90 25 -21 96
73 223 139 311 161 61 15 205 21 205 8 -1 -5 -28 -28 -62 -53 -75 -55 -266
-244 -456 -450 -250 -272 -262 -299 -250 -564 3 -82 7 -101 23 -112 46 -34 57
-25 223 201 302 409 606 717 944 958 150 106 167 130 149 211 -6 28 -20 70
-31 93 -23 52 -52 61 -130 44 -30 -7 -78 -15 -107 -18 -59 -6 -183 5 -183 16
0 4 19 17 43 28 36 19 38 22 17 22 -14 0 -57 -9 -97 -19z"/>
<path d="M3186 4043 c-195 -41 -373 -168 -475 -337 -136 -228 -141 -544 -10
-718 72 -97 185 -166 314 -193 89 -19 250 -19 340 0 79 16 239 91 271 127 16
18 31 73 63 238 23 118 44 223 47 233 5 15 -2 17 -50 17 l-55 0 -10 -52 c-6
-29 -26 -127 -44 -217 l-32 -165 -65 -32 c-104 -53 -176 -67 -310 -62 -293 12
-450 162 -450 432 0 283 159 517 415 609 66 24 101 30 200 34 175 8 294 -23
379 -98 l46 -41 39 35 40 36 -45 41 c-56 51 -148 96 -240 115 -88 19 -278 18
-368 -2z"/>
<path d="M5925 4043 c-211 -45 -401 -194 -495 -388 -52 -108 -70 -179 -76
-310 -10 -180 28 -297 133 -406 110 -116 258 -164 478 -156 152 6 219 22 335
79 68 34 103 60 176 133 76 76 97 104 136 185 69 142 97 298 78 442 -28 220
-177 376 -403 422 -95 20 -268 19 -362 -1z m333 -98 c212 -50 322 -194 322
-419 0 -182 -57 -329 -178 -457 -121 -129 -267 -189 -457 -189 -160 0 -269 36
-356 117 -92 86 -136 208 -126 354 21 292 210 530 472 593 79 19 244 19 323 1z"/>
<path d="M4151 3438 c-67 -337 -124 -621 -127 -630 -5 -16 2 -18 53 -18 l59 0
40 203 40 202 224 0 224 0 114 -202 114 -203 59 0 c33 0 59 2 59 4 0 2 -52 94
-115 206 -63 112 -115 206 -115 209 0 3 26 14 58 23 134 40 256 147 304 268
19 47 23 74 23 185 0 116 -2 135 -23 172 -30 58 -82 108 -144 139 -90 45 -159
54 -454 54 l-271 0 -122 -612z m719 497 c138 -43 198 -135 187 -284 -7 -99
-29 -159 -79 -216 -47 -54 -106 -90 -191 -118 -54 -18 -95 -21 -304 -25 -239
-4 -243 -4 -243 16 0 20 115 598 126 636 6 17 18 18 228 13 172 -3 233 -8 276
-22z"/>
<path d="M7022 3483 c43 -313 81 -595 85 -628 l8 -60 65 -3 65 -3 299 546
c167 304 304 541 309 536 4 -4 43 -248 85 -542 l77 -534 65 -2 65 -3 280 522
c154 287 306 571 338 630 l58 109 -58 -3 -58 -3 -270 -501 c-148 -275 -283
-524 -299 -553 -15 -29 -32 -49 -36 -44 -5 4 -40 238 -79 518 -39 281 -74 527
-77 548 l-6 37 -56 0 -57 -1 -299 -550 c-164 -302 -302 -552 -307 -554 -4 -3
-10 3 -12 12 -3 10 -38 260 -78 556 l-73 537 -56 0 -56 0 78 -567z"/>
<path d="M1912 3065 c-30 -13 -52 -47 -52 -81 0 -24 36 -52 82 -64 53 -14 78
-36 78 -66 0 -47 -76 -72 -145 -48 -51 17 -65 15 -39 -7 11 -9 42 -14 90 -14
85 0 115 19 116 74 1 40 -5 46 -76 74 -71 27 -91 51 -73 87 16 33 74 48 128
33 45 -12 64 2 24 17 -37 14 -94 12 -133 -5z"/>
<path d="M2161 3028 c-6 -29 -20 -96 -30 -148 -11 -52 -17 -97 -15 -99 11 -12
23 23 44 132 13 65 24 116 25 115 2 -2 21 -48 43 -103 22 -54 43 -100 48 -102
5 -1 45 44 89 102 44 57 80 103 81 102 1 -1 -9 -56 -22 -121 -22 -110 -24
-139 -8 -123 5 5 62 264 64 290 1 24 -29 -6 -107 -108 -48 -63 -91 -111 -94
-107 -4 4 -26 55 -49 115 -23 59 -45 107 -50 107 -5 0 -13 -24 -19 -52z"/>
<path d="M2510 2795 c0 -8 7 -15 15 -15 8 0 15 7 15 15 0 8 -7 15 -15 15 -8 0
-15 -7 -15 -15z"/>
</g>
</svg>
